<svg width="132" height="40" viewBox="0 0 132 40" fill="none" xmlns="http://www.w3.org/2000/svg">
<path d="M0.0355263 7.91568C0.00394737 7.98937 -0.00657895 13.4315 0.00394737 19.9999L0.0355263 31.9473H3.24605H6.45658V19.8946V7.842L3.26711 7.81042C0.772369 7.78937 0.0671053 7.81042 0.0355263 7.91568Z" fill="#3071F5"/>
<path d="M14.3304 8.02105C14.2357 8.17895 14.2883 8.08421 13.1936 9.94737C12.383 11.3368 12.1936 11.6526 11.8041 12.3053C11.1936 13.3158 10.3304 14.7789 10.1936 15.0316C10.0988 15.1895 9.95145 15.4316 9.85671 15.5789C9.68829 15.8526 8.47776 17.8947 7.64618 19.3263C7.3304 19.8526 7.28829 20.1053 7.45671 20.2737C7.51987 20.3368 7.64618 20.5263 7.75145 20.7053C7.84618 20.8842 8.38303 21.7895 8.9304 22.7263C9.47776 23.6632 10.0041 24.5684 10.0883 24.7368C10.183 24.9053 10.3199 25.1368 10.3936 25.2526C10.4778 25.3579 10.6883 25.7158 10.8672 26.0316C11.2357 26.6842 12.0883 28.1684 12.2462 28.4421C12.2988 28.5368 12.6357 29.1053 12.983 29.6947C13.3304 30.2947 13.7199 30.9474 13.8462 31.1474C13.983 31.3579 14.1409 31.6316 14.2146 31.7684L14.3304 32H17.9514C19.9304 32 21.562 31.9789 21.562 31.9579C21.562 31.9158 20.4567 30 19.9936 29.2526C19.8988 29.0947 19.5725 28.5263 19.2567 27.9895C18.9409 27.4421 18.6462 26.9789 18.6146 26.9474C18.5725 26.9158 18.1725 26.2421 17.7093 25.4421C17.2567 24.6421 16.8041 23.8737 16.7199 23.7368C16.6357 23.6 16.2778 23 15.9199 22.4105C15.5725 21.8105 15.2146 21.2 15.1304 21.0632C15.0462 20.9158 14.8567 20.6105 14.7093 20.3789L14.4251 19.9579L14.7093 19.5263C14.8672 19.2947 15.162 18.8316 15.362 18.4842C15.562 18.1474 15.8251 17.6947 15.9514 17.4842C16.0883 17.2737 16.362 16.8211 16.562 16.4737C16.7725 16.1263 17.2251 15.3895 17.562 14.8421C17.9093 14.2947 18.2778 13.6737 18.4041 13.4737C18.5199 13.2737 18.7409 12.9158 18.8778 12.6842C19.0251 12.4526 19.1936 12.1684 19.2462 12.0526C19.3093 11.9368 19.562 11.5053 19.8251 11.1053C20.0778 10.6947 20.4672 10.0632 20.6883 9.70526C20.9093 9.33684 21.1725 8.90526 21.2672 8.75789C21.3725 8.6 21.5199 8.34737 21.6146 8.17895L21.783 7.89474H18.0988C15.2672 7.89474 14.3936 7.92631 14.3304 8.02105Z" fill="#3071F5"/>
<path d="M23.9833 8.05264C23.8359 8.23159 21.6569 11.9579 21.0675 13.0526C20.8569 13.4316 20.6464 13.7684 20.5938 13.8C20.3833 13.9369 20.8254 13.9579 22.8359 13.9474C24.6359 13.9263 25.0148 13.9579 25.7833 14.1579C27.9096 14.6947 29.2254 15.7579 29.9622 17.4947C30.2148 18.1053 30.2359 18.2737 30.2464 19.7369C30.2464 21.1263 30.2148 21.3895 30.0148 21.9158C29.3938 23.5158 28.6675 24.3158 27.1412 25.0737C26.8254 25.2421 26.4885 25.3684 26.4043 25.3684C26.3096 25.3684 26.1727 25.4316 26.1096 25.5053C26.0043 25.6 25.2043 25.6421 23.1411 25.6842L20.3096 25.7369L22.0675 28.8211L23.8254 31.9053L25.4043 31.8632C27.4464 31.8 28.6569 31.4947 30.6043 30.5474C32.9412 29.4105 35.099 27.3263 36.1517 25.1579C36.6043 24.2421 36.8359 23.6842 36.899 23.3369C36.9306 23.1579 37.0043 22.9474 37.0464 22.8842C37.2464 22.6316 37.3727 20.9684 37.3306 19.3263C37.2675 17.4 37.0569 16.4947 36.3306 14.9895C35.8359 13.979 35.678 13.7369 34.9517 12.7895C32.8043 10.0211 29.8148 8.34738 26.4148 8.00001C24.8569 7.84211 24.1411 7.86317 23.9833 8.05264Z" fill="#3071F5"/>
<path d="M21.2143 16.2844L19.1406 16.316L19.1617 19.8213L19.1933 23.316L21.8775 23.3476C24.8669 23.3791 25.6038 23.2949 26.4354 22.8528C27.5722 22.2423 28.0564 21.1791 27.9512 19.5055C27.8985 18.5476 27.6564 17.937 27.088 17.3581C26.6354 16.8949 26.5512 16.8318 25.9301 16.537C25.3301 16.2528 24.688 16.2213 21.2143 16.2844Z" fill="#3071F5"/>
<path d="M38.2035 28.9686C38.2035 29.0423 38.2456 29.2002 38.2982 29.316C38.3719 29.4949 38.393 29.4739 38.393 29.1791C38.4035 29.0002 38.3614 28.8423 38.2982 28.8423C38.2456 28.8423 38.193 28.9055 38.2035 28.9686Z" fill="#3071F5"/>
<path d="M48.648 13.44L48.504 10.448L53.864 4.8H56.744L51.912 10L50.472 11.536L48.648 13.44ZM46.328 16V4.8H48.904V16H46.328ZM53.992 16L50.008 11.12L51.704 9.28L57.016 16H53.992ZM61.3621 16.128C60.6475 16.128 60.0075 15.9893 59.4421 15.712C58.8875 15.4347 58.4555 15.0133 58.1461 14.448C57.8368 13.872 57.6821 13.1413 57.6821 12.256V7.392H60.1781V11.888C60.1781 12.6027 60.3275 13.1307 60.6261 13.472C60.9355 13.8027 61.3675 13.968 61.9221 13.968C62.3061 13.968 62.6475 13.888 62.9461 13.728C63.2448 13.5573 63.4795 13.3013 63.6501 12.96C63.8208 12.608 63.9061 12.1707 63.9061 11.648V7.392H66.4021V16H64.0341V13.632L64.4661 14.32C64.1781 14.9173 63.7515 15.3707 63.1861 15.68C62.6315 15.9787 62.0235 16.128 61.3621 16.128ZM68.7145 16V4.128H71.2105V16H68.7145ZM75.591 14.24L75.655 11.2L79.671 7.392H82.647L78.791 11.312L77.495 12.368L75.591 14.24ZM73.527 16V4.128H76.023V16H73.527ZM79.943 16L77.031 12.384L78.599 10.448L82.967 16H79.943ZM89.2133 16V14.32L89.0533 13.952V10.944C89.0533 10.4107 88.8879 9.99467 88.5573 9.696C88.2373 9.39733 87.7413 9.248 87.0693 9.248C86.6106 9.248 86.1573 9.32267 85.7093 9.472C85.2719 9.61067 84.8986 9.80267 84.5893 10.048L83.6933 8.304C84.1626 7.97333 84.7279 7.71733 85.3893 7.536C86.0506 7.35467 86.7226 7.264 87.4053 7.264C88.7173 7.264 89.7359 7.57333 90.4613 8.192C91.1866 8.81067 91.5493 9.776 91.5493 11.088V16H89.2133ZM86.5893 16.128C85.9173 16.128 85.3413 16.016 84.8613 15.792C84.3813 15.5573 84.0133 15.2427 83.7573 14.848C83.5013 14.4533 83.3733 14.0107 83.3733 13.52C83.3733 13.008 83.4959 12.56 83.7413 12.176C83.9973 11.792 84.3973 11.4933 84.9413 11.28C85.4853 11.056 86.1946 10.944 87.0693 10.944H89.3573V12.4H87.3413C86.7546 12.4 86.3493 12.496 86.1253 12.688C85.9119 12.88 85.8053 13.12 85.8053 13.408C85.8053 13.728 85.9279 13.984 86.1733 14.176C86.4293 14.3573 86.7759 14.448 87.2133 14.448C87.6293 14.448 88.0026 14.352 88.3333 14.16C88.6639 13.9573 88.9039 13.664 89.0533 13.28L89.4373 14.432C89.2559 14.9867 88.9253 15.408 88.4453 15.696C87.9653 15.984 87.3466 16.128 86.5893 16.128ZM93.8083 16V7.392H96.1923V9.824L95.8563 9.12C96.1123 8.512 96.5229 8.05333 97.0883 7.744C97.6536 7.424 98.3416 7.264 99.1523 7.264V9.568C99.0456 9.55733 98.9496 9.552 98.8643 9.552C98.7789 9.54133 98.6883 9.536 98.5923 9.536C97.9096 9.536 97.3549 9.73333 96.9283 10.128C96.5123 10.512 96.3043 11.1147 96.3043 11.936V16H93.8083ZM105.884 7.264C106.567 7.264 107.175 7.40267 107.708 7.68C108.252 7.94667 108.679 8.36267 108.988 8.928C109.297 9.48267 109.452 10.1973 109.452 11.072V16H106.956V11.456C106.956 10.7627 106.801 10.2507 106.492 9.92C106.193 9.58933 105.767 9.424 105.212 9.424C104.817 9.424 104.46 9.50933 104.14 9.68C103.831 9.84 103.585 10.0907 103.404 10.432C103.233 10.7733 103.148 11.2107 103.148 11.744V16H100.652V7.392H103.036V9.776L102.588 9.056C102.897 8.48 103.34 8.03733 103.916 7.728C104.492 7.41867 105.148 7.264 105.884 7.264ZM111.715 16V7.392H114.211V16H111.715ZM112.963 6.192C112.504 6.192 112.131 6.05867 111.843 5.792C111.555 5.52533 111.411 5.19467 111.411 4.8C111.411 4.40533 111.555 4.07467 111.843 3.808C112.131 3.54133 112.504 3.408 112.963 3.408C113.421 3.408 113.795 3.536 114.083 3.792C114.371 4.03733 114.515 4.35733 114.515 4.752C114.515 5.168 114.371 5.51467 114.083 5.792C113.805 6.05867 113.432 6.192 112.963 6.192ZM124.754 16.192C123.933 16.192 123.202 16.0587 122.562 15.792C121.922 15.5253 121.416 15.1627 121.042 14.704C120.669 14.2453 120.482 13.7173 120.482 13.12C120.482 12.5653 120.605 12.0693 120.85 11.632C121.096 11.184 121.485 10.768 122.018 10.384C122.552 9.98933 123.229 9.60533 124.05 9.232C124.648 8.95467 125.117 8.70933 125.458 8.496C125.8 8.28267 126.04 8.08 126.178 7.888C126.317 7.68533 126.386 7.48267 126.386 7.28C126.386 7.00267 126.29 6.77867 126.098 6.608C125.917 6.43733 125.645 6.352 125.282 6.352C124.898 6.352 124.6 6.448 124.386 6.64C124.173 6.832 124.066 7.07733 124.066 7.376C124.066 7.536 124.098 7.696 124.162 7.856C124.226 8.00533 124.349 8.18133 124.53 8.384C124.712 8.576 124.968 8.82667 125.298 9.136L131.202 14.608L129.842 16.192L123.33 10.144C122.957 9.80267 122.658 9.48267 122.434 9.184C122.21 8.88533 122.045 8.592 121.938 8.304C121.842 8.016 121.794 7.71733 121.794 7.408C121.794 6.864 121.938 6.384 122.226 5.968C122.514 5.552 122.92 5.232 123.442 5.008C123.965 4.77333 124.578 4.656 125.282 4.656C125.933 4.656 126.493 4.76267 126.962 4.976C127.442 5.17867 127.816 5.472 128.082 5.856C128.36 6.24 128.498 6.69867 128.498 7.232C128.498 7.70133 128.381 8.13333 128.146 8.528C127.912 8.912 127.544 9.27467 127.042 9.616C126.552 9.95733 125.906 10.304 125.106 10.656C124.562 10.9013 124.13 11.1413 123.81 11.376C123.501 11.6 123.277 11.8293 123.138 12.064C123 12.2987 122.93 12.56 122.93 12.848C122.93 13.1147 123.01 13.3547 123.17 13.568C123.341 13.7813 123.576 13.9467 123.874 14.064C124.173 14.1813 124.525 14.24 124.93 14.24C125.581 14.24 126.178 14.0907 126.722 13.792C127.266 13.4827 127.725 13.0293 128.098 12.432C128.482 11.824 128.754 11.088 128.914 10.224L130.914 10.848C130.69 11.936 130.29 12.88 129.714 13.68C129.138 14.48 128.429 15.0987 127.586 15.536C126.744 15.9733 125.8 16.192 124.754 16.192ZM46.328 36V24.8H51.416C52.632 24.8 53.704 25.0347 54.632 25.504C55.56 25.9627 56.2853 26.608 56.808 27.44C57.3307 28.272 57.592 29.2587 57.592 30.4C57.592 31.5307 57.3307 32.5173 56.808 33.36C56.2853 34.192 55.56 34.8427 54.632 35.312C53.704 35.7707 52.632 36 51.416 36H46.328ZM48.92 33.872H51.288C52.0347 33.872 52.68 33.7333 53.224 33.456C53.7787 33.168 54.2053 32.7627 54.504 32.24C54.8133 31.7173 54.968 31.104 54.968 30.4C54.968 29.6853 54.8133 29.072 54.504 28.56C54.2053 28.0373 53.7787 27.6373 53.224 27.36C52.68 27.072 52.0347 26.928 51.288 26.928H48.92V33.872ZM64.6508 36V34.32L64.4908 33.952V30.944C64.4908 30.4107 64.3254 29.9947 63.9948 29.696C63.6748 29.3973 63.1788 29.248 62.5068 29.248C62.0481 29.248 61.5948 29.3227 61.1468 29.472C60.7094 29.6107 60.3361 29.8027 60.0268 30.048L59.1308 28.304C59.6001 27.9733 60.1654 27.7173 60.8268 27.536C61.4881 27.3547 62.1601 27.264 62.8428 27.264C64.1548 27.264 65.1734 27.5733 65.8988 28.192C66.6241 28.8107 66.9868 29.776 66.9868 31.088V36H64.6508ZM62.0268 36.128C61.3548 36.128 60.7788 36.016 60.2988 35.792C59.8188 35.5573 59.4508 35.2427 59.1948 34.848C58.9388 34.4533 58.8108 34.0107 58.8108 33.52C58.8108 33.008 58.9334 32.56 59.1788 32.176C59.4348 31.792 59.8348 31.4933 60.3788 31.28C60.9228 31.056 61.6321 30.944 62.5068 30.944H64.7948V32.4H62.7788C62.1921 32.4 61.7868 32.496 61.5628 32.688C61.3494 32.88 61.2428 33.12 61.2428 33.408C61.2428 33.728 61.3654 33.984 61.6108 34.176C61.8668 34.3573 62.2134 34.448 62.6508 34.448C63.0668 34.448 63.4401 34.352 63.7708 34.16C64.1014 33.9573 64.3414 33.664 64.4908 33.28L64.8748 34.432C64.6934 34.9867 64.3628 35.408 63.8828 35.696C63.4028 35.984 62.7841 36.128 62.0268 36.128ZM72.8778 36.128C72.1631 36.128 71.5231 35.9893 70.9578 35.712C70.4031 35.4347 69.9711 35.0133 69.6618 34.448C69.3524 33.872 69.1978 33.1413 69.1978 32.256V27.392H71.6938V31.888C71.6938 32.6027 71.8431 33.1307 72.1418 33.472C72.4511 33.8027 72.8831 33.968 73.4378 33.968C73.8218 33.968 74.1631 33.888 74.4618 33.728C74.7604 33.5573 74.9951 33.3013 75.1658 32.96C75.3364 32.608 75.4218 32.1707 75.4218 31.648V27.392H77.9178V36H75.5498V33.632L75.9818 34.32C75.6938 34.9173 75.2671 35.3707 74.7018 35.68C74.1471 35.9787 73.5391 36.128 72.8778 36.128ZM84.2781 39.232C83.4675 39.232 82.6835 39.1307 81.9261 38.928C81.1795 38.736 80.5555 38.4427 80.0541 38.048L81.0461 36.256C81.4088 36.5547 81.8675 36.7893 82.4221 36.96C82.9875 37.1413 83.5421 37.232 84.0861 37.232C84.9715 37.232 85.6115 37.0347 86.0061 36.64C86.4115 36.2453 86.6141 35.6587 86.6141 34.88V33.584L86.7741 31.424L86.7421 29.248V27.392H89.1101V34.56C89.1101 36.16 88.6941 37.3387 87.8621 38.096C87.0301 38.8533 85.8355 39.232 84.2781 39.232ZM83.8941 35.584C83.0941 35.584 82.3688 35.4133 81.7181 35.072C81.0781 34.72 80.5608 34.2347 80.1661 33.616C79.7821 32.9867 79.5901 32.256 79.5901 31.424C79.5901 30.5813 79.7821 29.8507 80.1661 29.232C80.5608 28.6027 81.0781 28.1173 81.7181 27.776C82.3688 27.4347 83.0941 27.264 83.8941 27.264C84.6195 27.264 85.2595 27.4133 85.8141 27.712C86.3688 28 86.8008 28.4533 87.1101 29.072C87.4195 29.68 87.5741 30.464 87.5741 31.424C87.5741 32.3733 87.4195 33.1573 87.1101 33.776C86.8008 34.384 86.3688 34.8373 85.8141 35.136C85.2595 35.4347 84.6195 35.584 83.8941 35.584ZM84.3901 33.536C84.8275 33.536 85.2168 33.4507 85.5581 33.28C85.8995 33.0987 86.1661 32.848 86.3581 32.528C86.5501 32.208 86.6461 31.84 86.6461 31.424C86.6461 30.9973 86.5501 30.6293 86.3581 30.32C86.1661 30 85.8995 29.7547 85.5581 29.584C85.2168 29.4027 84.8275 29.312 84.3901 29.312C83.9528 29.312 83.5635 29.4027 83.2221 29.584C82.8808 29.7547 82.6088 30 82.4061 30.32C82.2141 30.6293 82.1181 30.9973 82.1181 31.424C82.1181 31.84 82.2141 32.208 82.4061 32.528C82.6088 32.848 82.8808 33.0987 83.2221 33.28C83.5635 33.4507 83.9528 33.536 84.3901 33.536ZM96.6653 27.264C97.3479 27.264 97.9559 27.4027 98.4893 27.68C99.0333 27.9467 99.4599 28.3627 99.7693 28.928C100.079 29.4827 100.233 30.1973 100.233 31.072V36H97.7373V31.456C97.7373 30.7627 97.5826 30.2507 97.2733 29.92C96.9746 29.5893 96.5479 29.424 95.9933 29.424C95.5986 29.424 95.2413 29.5093 94.9213 29.68C94.6119 29.84 94.3666 30.0907 94.1853 30.432C94.0146 30.7733 93.9293 31.2107 93.9293 31.744V36H91.4333V24.128H93.9293V29.776L93.3693 29.056C93.6786 28.48 94.1213 28.0373 94.6973 27.728C95.2733 27.4187 95.9293 27.264 96.6653 27.264ZM106.016 36.128C105.002 36.128 104.213 35.872 103.648 35.36C103.082 34.8373 102.8 34.064 102.8 33.04V25.488H105.296V33.008C105.296 33.3707 105.392 33.6533 105.584 33.856C105.776 34.048 106.037 34.144 106.368 34.144C106.762 34.144 107.098 34.0373 107.376 33.824L108.048 35.584C107.792 35.7653 107.482 35.904 107.12 36C106.768 36.0853 106.4 36.128 106.016 36.128ZM101.472 29.504V27.584H107.44V29.504H101.472ZM113.455 36.128C112.474 36.128 111.61 35.936 110.863 35.552C110.127 35.168 109.557 34.6453 109.151 33.984C108.746 33.312 108.543 32.5493 108.543 31.696C108.543 30.832 108.741 30.0693 109.135 29.408C109.541 28.736 110.09 28.2133 110.783 27.84C111.477 27.456 112.261 27.264 113.135 27.264C113.978 27.264 114.735 27.4453 115.407 27.808C116.09 28.16 116.629 28.672 117.023 29.344C117.418 30.0053 117.615 30.8 117.615 31.728C117.615 31.824 117.61 31.936 117.599 32.064C117.589 32.1813 117.578 32.2933 117.567 32.4H110.575V30.944H116.255L115.295 31.376C115.295 30.928 115.205 30.5387 115.023 30.208C114.842 29.8773 114.591 29.6213 114.271 29.44C113.951 29.248 113.578 29.152 113.151 29.152C112.725 29.152 112.346 29.248 112.015 29.44C111.695 29.6213 111.445 29.8827 111.263 30.224C111.082 30.5547 110.991 30.9493 110.991 31.408V31.792C110.991 32.2613 111.093 32.6773 111.295 33.04C111.509 33.392 111.802 33.664 112.175 33.856C112.559 34.0373 113.007 34.128 113.519 34.128C113.978 34.128 114.378 34.0587 114.719 33.92C115.071 33.7813 115.391 33.5733 115.679 33.296L117.007 34.736C116.613 35.184 116.117 35.5307 115.519 35.776C114.922 36.0107 114.234 36.128 113.455 36.128ZM119.277 36V27.392H121.661V29.824L121.325 29.12C121.581 28.512 121.992 28.0533 122.557 27.744C123.122 27.424 123.81 27.264 124.621 27.264V29.568C124.514 29.5573 124.418 29.552 124.333 29.552C124.248 29.5413 124.157 29.536 124.061 29.536C123.378 29.536 122.824 29.7333 122.397 30.128C121.981 30.512 121.773 31.1147 121.773 31.936V36H119.277Z" fill="#3071F5"/>
</svg>
