<svg width="92" height="92" viewBox="0 0 92 92" fill="none" xmlns="http://www.w3.org/2000/svg">
<g filter="url(#filter0_d_599_17479)">
<circle cx="46" cy="47" r="26" fill="white"/>
<path d="M51.9091 43.3333H54.2727V40.8889H51.9091V43.3333ZM51.9091 48.2222H54.2727V45.7778H51.9091V48.2222ZM51.9091 53.1111H54.2727V50.6667H51.9091V53.1111ZM51.9091 58V55.5556H56.6364V38.4444H46V40.1556L43.6364 38.3833C43.6364 37.7315 43.868 37.1713 44.3313 36.7028C44.7938 36.2343 45.35 36 46 36H56.6364C57.2864 36 57.843 36.2391 58.3063 36.7174C58.7688 37.1966 59 37.7722 59 38.4444V55.5556C59 56.2278 58.7688 56.8034 58.3063 57.2826C57.843 57.7609 57.2864 58 56.6364 58H51.9091ZM33 56.7778V47.0306C33 46.6231 33.0886 46.2463 33.2659 45.9C33.4432 45.5537 33.6894 45.2685 34.0045 45.0444L39.9136 40.675C40.3273 40.3694 40.7803 40.2167 41.2727 40.2167C41.7652 40.2167 42.2182 40.3694 42.6318 40.675L48.5409 45.0444C48.8561 45.2685 49.1023 45.5537 49.2795 45.9C49.4568 46.2463 49.5455 46.6231 49.5455 47.0306V56.7778C49.5455 57.1241 49.4324 57.4141 49.2063 57.648C48.9794 57.8827 48.6985 58 48.3636 58H42.4545V51.8889H40.0909V58H34.1818C33.847 58 33.5665 57.8827 33.3404 57.648C33.1135 57.4141 33 57.1241 33 56.7778ZM35.3636 55.5556H37.7273V49.4444H44.8182V55.5556H47.1818V47L41.2727 42.6611L35.3636 47V55.5556ZM44.8182 55.5556V49.4444H37.7273V55.5556V49.4444H44.8182V55.5556Z" fill="#E84141"/>
</g>
<defs>
<filter id="filter0_d_599_17479" x="0" y="0" width="92" height="92" filterUnits="userSpaceOnUse" color-interpolation-filters="sRGB">
<feFlood flood-opacity="0" result="BackgroundImageFix"/>
<feColorMatrix in="SourceAlpha" type="matrix" values="0 0 0 0 0 0 0 0 0 0 0 0 0 0 0 0 0 0 127 0" result="hardAlpha"/>
<feOffset dy="-1"/>
<feGaussianBlur stdDeviation="10"/>
<feComposite in2="hardAlpha" operator="out"/>
<feColorMatrix type="matrix" values="0 0 0 0 0 0 0 0 0 0 0 0 0 0 0 0 0 0 0.25 0"/>
<feBlend mode="normal" in2="BackgroundImageFix" result="effect1_dropShadow_599_17479"/>
<feBlend mode="normal" in="SourceGraphic" in2="effect1_dropShadow_599_17479" result="shape"/>
</filter>
</defs>
</svg>
