<svg width="29" height="25" viewBox="0 0 29 25" fill="none" xmlns="http://www.w3.org/2000/svg">
<path d="M28.8348 13.3694L25.3444 6.40196C25.0441 5.80414 24.4537 5.43457 23.8116 5.43457H16.5719L15.5362 15.2172L29.0005 14.1302C29.0005 13.8367 28.9487 13.6411 28.8348 13.3694Z" fill="#E6E6E6"/>
<path d="M28.6797 13.0431H21.8543C21.2225 13.0431 20.715 12.5105 20.715 11.8474V7.72788C20.715 7.06483 21.2225 6.53223 21.8543 6.53223H25.3965L28.6797 13.0431Z" fill="#26C9FC"/>
<path d="M29.0005 14.1305V19.8153C29.0005 20.8805 28.1719 21.7501 27.1569 21.7501H1.86477C0.839417 21.7501 0.000488758 20.8696 0.000488758 19.7935V14.1305L7.76835 10.8696L16.5719 14.1305H29.0005Z" fill="#FF822D"/>
<path d="M18.6436 21.1955C18.6436 22.2044 19.0255 23.1721 19.7053 23.8855C20.3851 24.599 21.3071 24.9998 22.2686 24.9998C23.23 24.9998 24.152 24.599 24.8318 23.8855C25.5116 23.1721 25.8936 22.2044 25.8936 21.1955C25.8936 20.1865 25.5116 19.2188 24.8318 18.5054C24.152 17.7919 23.23 17.3911 22.2686 17.3911C21.3071 17.3911 20.3851 17.7919 19.7053 18.5054C19.0255 19.2188 18.6436 20.1865 18.6436 21.1955ZM3.10784 21.1955C3.10784 22.2044 3.48976 23.1721 4.16958 23.8855C4.8494 24.599 5.77143 24.9998 6.73284 24.9998C7.69425 24.9998 8.61628 24.599 9.2961 23.8855C9.97592 23.1721 10.3578 22.2044 10.3578 21.1955C10.3578 20.1865 9.97592 19.2188 9.2961 18.5054C8.61628 17.7919 7.69425 17.3911 6.73284 17.3911C5.77143 17.3911 4.8494 17.7919 4.16958 18.5054C3.48976 19.2188 3.10784 20.1865 3.10784 21.1955Z" fill="#321B41"/>
<path d="M20.7146 21.1959C20.7146 21.6283 20.8783 22.043 21.1697 22.3488C21.461 22.6545 21.8562 22.8263 22.2682 22.8263C22.6802 22.8263 23.0754 22.6545 23.3667 22.3488C23.6581 22.043 23.8218 21.6283 23.8218 21.1959C23.8218 20.7634 23.6581 20.3487 23.3667 20.043C23.0754 19.7372 22.6802 19.5654 22.2682 19.5654C21.8562 19.5654 21.461 19.7372 21.1697 20.043C20.8783 20.3487 20.7146 20.7634 20.7146 21.1959V21.1959ZM5.17892 21.1959C5.17892 21.41 5.21911 21.622 5.29718 21.8198C5.37525 22.0176 5.48969 22.1974 5.63395 22.3488C5.77821 22.5002 5.94948 22.6203 6.13796 22.7022C6.32645 22.7841 6.52847 22.8263 6.73249 22.8263C6.93651 22.8263 7.13853 22.7841 7.32702 22.7022C7.51551 22.6203 7.68677 22.5002 7.83103 22.3488C7.97529 22.1974 8.08973 22.0176 8.1678 21.8198C8.24588 21.622 8.28606 21.41 8.28606 21.1959C8.28606 20.7634 8.12238 20.3487 7.83103 20.043C7.53968 19.7372 7.14452 19.5654 6.73249 19.5654C6.32046 19.5654 5.9253 19.7372 5.63395 20.043C5.3426 20.3487 5.17892 20.7634 5.17892 21.1959V21.1959Z" fill="#F4F4F4"/>
<path d="M9.86968e-05 16.3042H0.517956C1.39831 16.3042 2.11296 17.0759 2.07153 18.0107C2.0301 18.8912 1.3051 19.5651 0.466171 19.5651H9.86968e-05V16.3042Z" fill="#CA0B4A"/>
<path d="M13.4648 0H3.10763C1.38835 0 0.000488758 1.45652 0.000488758 3.26087V14.1304H16.5719V3.26087C16.5719 1.45652 15.1841 0 13.4648 0ZM29.0005 19.5652H28.058C27.4366 19.5652 26.9291 19.0326 26.9291 18.3804V16.4022C26.9291 15.75 27.4366 15.2174 28.058 15.2174H29.0005V19.5652Z" fill="#FCD53F"/>
</svg>
